<?xml version="1.0" standalone="no"?>
<!DOCTYPE svg PUBLIC "-//W3C//DTD SVG 20010904//EN"
 "http://www.w3.org/TR/2001/REC-SVG-20010904/DTD/svg10.dtd">
<svg version="1.0" xmlns="http://www.w3.org/2000/svg"
 width="500.000000pt" height="500.000000pt" viewBox="0 0 500.000000 500.000000"
 preserveAspectRatio="xMidYMid meet">
<metadata>
Created by potrace 1.15, written by Peter Selinger 2001-2017
</metadata>
<g transform="translate(0.000000,500.000000) scale(0.100000,-0.100000)"
fill="#000000" stroke="none">
<path d="M2362 3088 c-9 -4 1 -5 23 -2 33 4 29 1 -25 -18 -225 -79 -380 -304
-380 -550 0 -122 12 -164 98 -342 3 -5 -2 -5 -9 -1 -8 5 -11 4 -6 -1 5 -5 14
-9 19 -9 6 0 13 -6 16 -14 3 -10 0 -11 -9 -5 -19 11 43 -66 72 -91 18 -15 20
-15 10 -2 -21 27 -2 20 37 -14 20 -18 70 -48 111 -68 65 -31 87 -36 167 -39
98 -5 179 12 242 49 39 22 46 24 36 7 -4 -8 -3 -10 2 -5 5 5 9 14 9 19 0 6 6
13 14 16 9 3 11 0 5 -9 -4 -8 5 -3 21 10 l30 23 6 -49 7 -48 0 60 c0 88 5 91
11 5 l6 -75 53 -3 52 -3 0 290 0 291 -180 0 -180 0 0 -50 0 -50 125 0 125 0 0
-97 0 -97 -49 -47 c-128 -124 -291 -159 -446 -98 -33 13 -60 29 -60 36 0 6 -4
15 -9 20 -5 5 -6 3 -2 -4 16 -29 -13 -10 -62 40 -48 49 -67 78 -40 61 7 -4 8
-3 4 5 -4 6 -11 9 -16 6 -21 -13 -75 132 -85 226 -14 138 39 301 131 399 26
27 51 50 57 50 5 0 -10 -18 -34 -39 -24 -21 -52 -54 -62 -72 -16 -31 -16 -31
0 -9 9 14 38 45 63 70 25 24 44 48 43 52 -5 13 69 45 131 58 72 15 157 7 235
-22 63 -24 164 -116 159 -145 -2 -14 4 -18 29 -17 22 1 31 -2 26 -10 -3 -6 -2
-7 3 -3 5 5 9 14 9 19 0 6 6 13 14 16 9 3 11 0 6 -9 -5 -8 -4 -11 1 -6 5 5 9
14 9 20 0 5 6 12 14 15 8 3 11 0 7 -7 -11 -17 0 -13 15 6 12 14 12 16 0 8 -11
-6 -13 -4 -8 7 3 9 -1 24 -9 35 -14 17 -14 16 -4 -7 11 -24 10 -24 -5 -5 -8
11 -13 25 -11 31 6 15 -55 86 -97 115 -22 15 -19 10 10 -16 24 -20 52 -51 65
-68 14 -21 4 -14 -29 19 -61 63 -140 110 -213 126 -41 9 -49 13 -32 18 13 3
-38 5 -113 5 -75 0 -143 -3 -153 -7z"/>
<path d="M3923 3083 l-313 -3 0 -576 0 -576 308 4 307 3 60 28 c33 15 78 45
100 65 l40 37 -38 -41 c-22 -23 -57 -50 -78 -59 -22 -10 -37 -20 -35 -22 10
-10 85 39 126 83 25 26 39 43 31 39 -7 -4 -12 -4 -9 1 49 101 50 106 46 183
-4 67 -11 92 -46 165 -3 5 1 5 9 0 12 -7 12 -5 0 9 -7 9 -17 15 -21 12 -9 -5
-52 39 -45 47 3 3 -2 11 -12 19 -11 9 -14 10 -9 2 10 -18 -5 -16 -29 4 -17 13
-17 15 -2 9 11 -3 16 -2 12 5 -4 5 12 30 34 54 28 30 39 50 34 61 -3 10 -2 15
3 12 5 -4 10 4 10 15 1 12 6 46 12 75 19 87 -8 182 -75 263 -22 28 -23 30 -4
14 13 -11 36 -42 52 -70 16 -27 29 -45 29 -39 0 17 -55 97 -85 124 -16 14 -25
19 -21 13 10 -18 4 -16 -45 12 -48 27 -46 34 1 10 17 -9 30 -13 30 -11 0 6
-58 37 -62 34 -2 -2 -144 -4 -315 -5z m283 -130 c127 -73 123 -297 -6 -363
-36 -18 -58 -20 -255 -20 l-215 0 0 203 0 202 227 -5 c153 -3 235 -9 249 -17z
m34 -512 c139 -74 142 -290 5 -368 -38 -22 -50 -23 -267 -23 l-228 0 0 195 0
195 233 3 232 2 -237 3 -238 2 -3 -207 -2 -208 -3 213 -2 212 238 0 c212 0
241 -2 272 -19z"/>
<path d="M600 2505 l0 -576 63 3 62 3 0 207 0 207 163 3 164 3 120 -190 c67
-104 128 -200 136 -212 8 -13 12 -23 9 -23 -3 0 -19 23 -37 50 -18 28 -34 50
-37 50 -5 0 2 -13 37 -65 l27 -40 72 3 c39 2 71 8 71 13 0 4 -52 91 -116 191
-64 101 -124 194 -133 208 -15 24 -15 24 2 11 15 -12 17 -12 11 3 -3 9 -14 16
-23 17 -9 0 4 8 29 16 65 23 150 112 180 188 36 89 34 209 -3 289 -15 32 -25
62 -22 66 3 4 -14 27 -36 51 -22 24 -38 38 -34 32 10 -21 -8 -14 -40 14 l-30
26 30 -17 30 -17 -23 20 c-13 11 -30 17 -39 14 -9 -4 -14 -2 -11 3 9 14 -14
15 -329 20 l-293 5 0 -576z m558 449 c144 -60 190 -275 88 -409 -53 -69 -79
-75 -313 -75 l-208 0 3 240 3 240 202 2 202 2 -210 6 -210 6 203 2 c164 2 210
-1 240 -14z"/>
</g>
</svg>
